<svg width="464" height="464" viewBox="0 0 464 464" fill="none" xmlns="http://www.w3.org/2000/svg">
<path d="M104.782 269.42V261.937C104.782 249.56 94.7096 239.484 82.3293 239.484C69.9522 239.484 59.877 249.556 59.877 261.937V269.42H74.8457V261.937C74.8457 257.813 78.1988 254.454 82.3286 254.454C86.4584 254.454 89.8115 257.813 89.8115 261.937V269.42H104.782Z" fill="#95989A" fill-opacity="0.27"/>
<path d="M179.617 269.42V261.937C179.617 249.56 169.545 239.484 157.164 239.484C144.787 239.484 134.712 249.556 134.712 261.937V269.42H149.681V261.937C149.681 257.813 153.034 254.454 157.164 254.454C161.293 254.454 164.646 257.813 164.646 261.937V269.42H179.617Z" fill="#95989A" fill-opacity="0.27"/>
<path d="M124.134 314.324H104.783V329.293H124.134C132.957 329.293 141.249 325.859 147.492 319.625L136.909 309.035C133.498 312.443 128.953 314.324 124.134 314.324V314.324Z" fill="#95989A" fill-opacity="0.27"/>
<path d="M44.916 44.9072H59.8848V59.876H44.916V44.9072Z" fill="#95989A" fill-opacity="0.27"/>
<path d="M74.8438 44.9072H89.8125V59.876H74.8438V44.9072Z" fill="#95989A" fill-opacity="0.27"/>
<path d="M104.78 44.9072H119.749V59.876H104.78V44.9072Z" fill="#95989A" fill-opacity="0.27"/>
<path d="M326.195 306.835H314.327V321.803H326.195C335.018 321.803 343.31 318.369 349.553 312.136L338.97 301.546C335.559 304.954 331.015 306.834 326.195 306.834V306.835Z" fill="#95989A" fill-opacity="0.27"/>
<path d="M264.138 106.961C260.723 110.379 256.182 112.259 251.36 112.259H239.491V127.228H251.36C260.182 127.228 268.474 123.794 274.717 117.56L264.138 106.961Z" fill="#95989A" fill-opacity="0.27"/>
<path d="M386.069 112.255H374.201V127.224H386.069C394.892 127.224 403.184 123.79 409.427 117.557L398.844 106.967C395.433 110.375 390.889 112.255 386.069 112.255V112.255Z" fill="#95989A" fill-opacity="0.27"/>
<path d="M454.756 192.527C451.021 173.856 435.635 159.854 417.128 157.504L414.772 150.426C428.654 142.606 438.6 128.647 440.959 112.251H441.548C453.925 112.251 464 102.179 464 89.7984C464 77.4214 453.928 67.3461 441.548 67.3461V37.4177H456.516V22.4522H417.011L415.962 19.316C412.107 7.7617 401.336 0.000579992 389.16 0.000579992C376.984 0.000579992 366.216 7.76187 362.352 19.3226L361.316 22.4523H282.302L281.254 19.3161C277.399 7.76178 266.631 0.000662848 254.455 0.000662848C242.279 0.000662848 231.511 7.76195 227.646 19.3227L226.608 22.4524H187.099V37.4212H202.067V67.3562C189.69 67.3562 179.615 77.4282 179.615 89.8085C179.615 102.186 189.687 112.261 202.067 112.261H202.666C205.032 128.657 214.968 142.617 228.853 150.436L226.496 157.514C221.169 158.194 216.013 159.916 211.275 162.447C189.292 136.37 156.438 119.74 119.744 119.74C112.627 119.74 105.681 120.481 98.9007 121.679L103.131 104.775H142.196C154.573 104.775 164.648 94.7027 164.648 82.3224V22.4523C164.648 10.0753 154.576 0 142.196 0H22.4524C10.0729 0 8.84997e-05 10.072 8.84997e-05 22.4523V82.3224C8.84997e-05 94.6994 10.0721 104.775 22.4524 104.775H61.5173L65.7669 121.777C66.6116 125.159 68.4598 128.049 70.9098 130.256C29.1777 148.996 0 190.861 0 239.477V323.062C0 351.207 14.2927 377.776 37.5702 393.357C39.7323 424.415 65.6866 449.02 97.2878 449.02H98.3203C109.561 458.36 123.989 463.989 139.713 463.989H419.095C427.348 463.989 434.064 457.276 434.064 449.02V404.116C434.064 395.863 427.351 389.147 419.095 389.147H395.296L394.885 387.095C391.15 368.424 375.763 354.422 357.257 352.072L354.901 344.994C368.782 337.174 378.728 323.215 381.087 306.819L381.673 306.822C394.05 306.822 404.125 296.75 404.125 284.369C404.125 271.992 394.053 261.917 381.673 261.917V231.982H396.642V217.013H357.136L356.087 213.877C355.579 212.359 354.935 210.912 354.2 209.53H458.152L454.756 192.527ZM22.4554 89.8025C18.3255 89.8025 14.9725 86.443 14.9725 82.3197V22.4496C14.9725 18.3262 18.3256 14.9667 22.4554 14.9667H142.199C146.329 14.9667 149.682 18.3263 149.682 22.4496V82.3197C149.682 86.4431 146.329 89.8025 142.199 89.8025H91.4595L84.3714 118.145C83.8989 120.022 80.7626 120.022 80.2933 118.145L73.1988 89.8025H22.4554ZM402.706 161.586L389.158 170.614L375.612 161.581L377.535 155.81C381.28 156.664 385.163 157.156 389.157 157.156C393.154 157.156 397.038 156.661 400.779 155.81L402.706 161.586ZM301.44 217.025H261.934V231.994H276.903V261.929C264.526 261.929 254.45 272.001 254.45 284.382C254.45 296.759 264.522 306.834 276.903 306.834H277.502C279.867 323.23 289.804 337.19 303.688 345.009L301.332 352.087C282.815 354.431 267.439 368.438 263.704 387.111L263.28 389.153H220.324C232.603 371.342 239.481 350.036 239.481 327.703V239.478C239.481 229.128 238.021 219.13 235.536 209.543H304.364C303.629 210.929 302.989 212.372 302.477 213.9L301.44 217.025ZM276.904 291.864C272.774 291.864 269.421 288.505 269.421 284.381C269.421 280.258 272.774 276.898 276.904 276.898V291.864ZM321.804 389.154H278.632C281.529 376.761 292.222 367.767 304.842 366.883L321.805 378.191L321.804 389.154ZM261.934 183.613L278.906 172.298C291.523 173.188 302.294 182.17 305.174 194.579H261.933L261.934 183.613ZM320.719 195.919L320.04 192.53C316.305 173.858 300.918 159.857 282.412 157.507L280.055 150.428C293.937 142.609 303.883 128.65 306.242 112.253L306.838 112.25C312.608 112.25 317.823 109.997 321.806 106.411C325.787 110.004 331.005 112.25 336.775 112.25H337.374C339.74 128.647 349.676 142.606 363.56 150.425L361.204 157.504C342.688 159.847 327.311 173.854 323.576 192.527L323.006 195.372C322.23 195.543 321.459 195.686 320.718 195.919L320.719 195.919ZM306.838 82.3231C310.968 82.3231 314.321 85.6827 314.321 89.806C314.321 93.9294 310.968 97.2889 306.838 97.2889V82.3231ZM336.773 97.2886C332.643 97.2886 329.29 93.929 329.29 89.8057C329.29 85.6823 332.643 82.3228 336.773 82.3228V97.2886ZM364.701 172.299L381.673 183.614V194.579H338.432C341.313 182.176 352.081 173.189 364.7 172.298L364.701 172.299ZM389.157 142.192C368.524 142.192 351.739 125.407 351.739 104.775V67.3535H426.578V104.771C426.578 125.407 409.79 142.192 389.157 142.192ZM449.027 89.805C449.027 93.9284 445.674 97.2879 441.544 97.2879V82.3192C445.677 82.3224 449.027 85.6819 449.027 89.8054V89.805ZM426.578 52.3873H351.739V37.4185H426.578V52.3873ZM389.157 14.9695C394.267 14.9695 398.721 17.9698 400.928 22.4524H377.386C379.603 17.9697 384.046 14.9695 389.157 14.9695ZM336.773 37.4185V67.3535C331.002 67.3535 325.788 69.6062 321.804 73.1923C317.823 69.6062 312.605 67.3535 306.839 67.3535V37.4185H336.773ZM254.451 14.9695C259.562 14.9695 264.015 17.9698 266.223 22.4524H242.68C244.894 17.9697 249.341 14.9695 254.451 14.9695ZM291.869 37.4185V52.3873H217.03V37.4185H291.869ZM194.58 89.8059C194.58 85.6824 197.933 82.323 202.062 82.323V97.2917C197.933 97.2885 194.58 93.9289 194.58 89.8055V89.8059ZM217.029 104.775V67.3535H291.867V104.771C291.867 125.404 275.082 142.189 254.45 142.189C233.817 142.192 217.029 125.407 217.029 104.775V104.775ZM254.45 157.159C258.447 157.159 262.331 156.663 266.072 155.812L267.994 161.583L254.449 170.616L240.904 161.583L242.826 155.812C246.568 156.667 250.452 157.159 254.448 157.159H254.45ZM229.978 172.293L246.967 183.615V194.58H230.667C227.832 187.589 224.337 180.951 220.288 174.688C223.34 173.332 226.596 172.522 229.978 172.293V172.293ZM52.3846 389.152V384.915L48.7564 382.731C27.9032 370.228 14.9669 347.365 14.9669 323.065V239.479C14.9669 181.704 61.9653 134.708 119.738 134.708C177.511 134.708 224.51 181.706 224.51 239.479V327.704C224.51 358.283 209.586 386.646 184.59 404.12H156.008L154.076 392.559C152.661 384.089 148.583 376.745 142.909 371.042C181.22 360.786 209.537 325.872 209.537 284.383V265.585C209.537 234.414 185.169 208.476 154.059 206.531L120.127 204.414C98.581 203.068 78.8025 192.387 65.8463 175.123L53.8711 184.105C57.577 189.05 61.7586 193.548 66.3095 197.546C43.877 211.686 29.9274 236.456 29.9274 263.556V284.383C29.9274 323.164 54.684 356.19 89.1827 368.723C80.4894 376.05 74.832 386.876 74.832 399.114C74.832 411.132 78.1787 422.353 83.8882 432.014C65.6466 426.301 52.3806 409.247 52.3806 389.152L52.3846 389.152ZM119.737 359.217C78.471 359.217 44.8986 325.644 44.8986 284.378V263.551C44.8986 239.574 58.414 217.863 79.6401 207.199C91.5374 214.235 105.054 218.462 119.201 219.352L153.133 221.469C176.368 222.925 194.577 242.293 194.577 265.58V284.38C194.577 325.647 161.004 359.216 119.738 359.216L119.737 359.217ZM89.8024 399.114C89.8024 385.365 100.985 374.186 114.73 374.186C126.968 374.186 137.309 382.95 139.322 395.013L141.656 409.038L129.412 421.281L139.995 431.864L152.77 419.086H164.642V449.021H139.713C112.186 449.021 89.8027 426.631 89.8027 399.114H89.8024ZM179.61 449.021V419.086H194.579C202.832 419.086 209.547 425.799 209.547 434.055C209.547 442.308 202.835 449.024 194.579 449.024L179.61 449.021ZM419.089 449.021H220.35C222.927 444.6 224.512 439.535 224.512 434.056C224.512 421.407 216.602 410.623 205.488 406.248C206.229 405.552 206.948 404.84 207.666 404.121H419.09L419.089 449.021ZM379.942 389.151H336.77V378.189L353.737 366.881C366.353 367.765 377.047 376.759 379.943 389.152L379.942 389.151ZM342.832 356.165L329.283 365.192L315.738 356.159L317.661 350.388C321.405 351.242 325.289 351.734 329.283 351.734C333.28 351.734 337.164 351.239 340.905 350.388L342.832 356.165ZM329.283 336.768C308.651 336.768 291.866 319.983 291.866 299.35V261.933H366.705V299.35C366.705 319.98 349.916 336.768 329.283 336.768ZM389.154 284.381C389.154 288.504 385.8 291.864 381.671 291.864V276.895C385.804 276.898 389.154 280.258 389.154 284.381V284.381ZM366.705 246.963H291.866V231.994H366.705V246.963ZM341.058 217.025H317.515C319.729 212.542 324.176 209.542 329.287 209.542C334.397 209.542 338.848 212.542 341.058 217.025ZM396.64 194.576V183.614L413.612 172.299C426.228 173.189 437 182.17 439.88 194.58L396.64 194.576Z" fill="#95989A" fill-opacity="0.27"/>
</svg>
