<svg width="372" height="562" viewBox="0 0 372 562" fill="none" xmlns="http://www.w3.org/2000/svg">
<path d="M562.541 258.77H543.787C543.787 248.429 535.376 240.016 525.034 240.016H401.543C384.921 240.016 369.141 245.499 356.277 255.628C350.568 251.136 344.212 247.715 337.523 245.125V211.888C337.523 196.382 324.902 183.761 309.396 183.761H232.216C234.25 181.549 236.18 179.233 237.88 176.682L245.466 165.31C256.621 148.575 262.519 129.093 262.519 108.961C262.519 72.6598 232.985 43.1258 196.683 43.1258C189.754 43.1258 182.921 44.2417 176.347 46.389C180.762 33.8357 187.006 21.927 195.016 11.2518L180.013 0C168.648 15.1512 160.382 32.4589 155.411 50.6762L142.914 46.5026C136.19 44.2626 129.188 43.1266 122.091 43.1266C85.789 43.1266 56.255 72.6607 56.255 108.975C56.255 129.094 62.1529 148.588 73.3079 165.323L80.8938 176.696C82.5899 179.246 84.5236 181.562 86.5581 183.774H28.1273C12.6214 183.774 0 196.395 0 211.901V249.403C0 256.631 2.82408 263.165 7.31189 268.157C2.82397 273.132 0.00402075 279.667 0.00402075 286.898V324.4C0.00402075 331.628 2.8281 338.162 7.31591 343.154C2.82397 348.137 0.00402075 354.672 0.00402075 361.903V399.405C0.00402075 406.633 2.8281 413.167 7.31591 418.159C2.82397 423.142 0.00402075 429.681 0.00402075 436.909V474.411C0.00402075 481.638 2.8281 488.173 7.31591 493.164C2.82397 498.152 0.00402075 504.686 0.00402075 511.914V549.416C0.00402075 564.922 12.6254 577.543 28.1314 577.543H309.405C323.392 577.543 334.926 567.258 337.081 553.871C342.838 557.05 349.401 558.79 356.282 558.79C370.196 558.79 382.814 551.692 390.025 540.036L562.545 540.04C572.887 540.04 581.299 531.629 581.299 521.287V277.523C581.295 267.182 572.887 258.773 562.545 258.773L562.541 258.77ZM525.039 258.77V483.785L401.538 483.78C388.187 483.78 375.594 478.97 365.647 470.268V272.274C375.605 263.564 388.186 258.762 401.538 258.762L525.039 258.77ZM187.517 277.519V258.766H311.018C324.369 258.766 336.962 263.576 346.91 272.278V470.262C336.951 478.972 324.37 483.774 311.018 483.774H187.517V277.519ZM96.4986 166.291L88.9127 154.919C79.8201 141.266 75.0104 125.385 75.0104 108.976C75.0104 83.0033 96.132 61.8818 122.093 61.8818C127.165 61.8818 132.172 62.6955 136.983 64.299L151.59 69.1656C150.692 75.5147 150.156 81.9076 150.08 88.3297C148.638 87.8704 147.175 87.4877 145.814 86.8109L135.452 81.6261L127.06 98.3975L137.422 103.582C144.222 106.97 151.804 108.759 159.39 108.759C166.976 108.759 174.562 106.966 181.346 103.574L191.708 98.3894L183.316 81.618L172.954 86.8028C171.641 87.4595 170.227 87.8261 168.829 88.2733C168.922 81.4649 169.534 74.6887 170.674 67.9933L181.785 64.2911C186.599 62.6957 191.615 61.882 196.686 61.882C222.647 61.882 243.773 83.0035 243.773 108.976C243.773 125.385 238.962 141.273 229.87 154.919L222.284 166.291C214.989 177.233 202.782 183.767 189.629 183.767C183.574 183.767 177.498 182.333 172.075 179.622L159.389 173.285L146.703 179.622C141.284 182.333 135.209 183.767 129.15 183.767C116 183.767 103.789 177.229 96.4978 166.291L96.4986 166.291ZM18.7542 211.891C18.7542 206.726 22.9561 202.517 28.1288 202.517H309.402C314.579 202.517 318.777 206.726 318.777 211.891V240.656C316.198 240.386 313.64 240.019 311.014 240.019H187.523C177.182 240.019 168.769 248.431 168.769 258.773H28.1375C22.9608 258.773 18.763 254.563 18.763 249.398L18.7542 211.891ZM131.262 483.79H28.129C22.9522 483.79 18.7544 479.58 18.7544 474.415V436.913C18.7544 431.748 22.9563 427.539 28.129 427.539H131.262V483.79ZM131.262 408.785H28.129C22.9522 408.785 18.7544 404.575 18.7544 399.41V361.908C18.7544 356.743 22.9563 352.533 28.129 352.533H131.262V408.785ZM131.262 333.779H28.129C22.9522 333.779 18.7544 329.569 18.7544 324.405V286.903C18.7544 281.738 22.9563 277.528 28.129 277.528H131.262V333.779ZM309.402 558.794H28.129C22.9522 558.794 18.7544 554.584 18.7544 549.419V511.917C18.7544 506.753 22.9563 502.543 28.129 502.543H131.262V521.296C131.262 531.637 139.673 540.05 150.015 540.05H318.781V549.424C318.781 554.589 314.579 558.795 309.407 558.795L309.402 558.794ZM562.541 521.292H378.604L375.023 528.455C371.449 535.597 364.27 540.045 356.269 540.045C348.272 540.045 341.089 535.601 337.516 528.455L333.938 521.292H150.012V277.528H168.765V483.793C168.765 494.134 177.177 502.546 187.519 502.546H311.02C327.642 502.546 343.422 497.063 356.286 486.935C369.15 497.051 384.929 502.546 401.552 502.546H525.043C535.384 502.546 543.796 494.135 543.796 483.793V277.528H562.55L562.541 521.292Z" fill="#D7EDDA"/>
<path d="M206.26 446.286H309.392V465.04H206.26V446.286Z" fill="#D7EDDA"/>
<path d="M206.26 408.775H328.142V427.529H206.26V408.775Z" fill="#D7EDDA"/>
<path d="M225.009 352.528H253.137V371.281C253.137 381.623 261.548 390.035 271.89 390.035H309.393C319.734 390.035 328.146 381.623 328.146 371.281V333.779C328.146 323.438 319.734 315.026 309.393 315.026H281.265V296.272C281.265 285.931 272.853 277.519 262.512 277.519H225.009C214.668 277.519 206.256 285.93 206.256 296.272V333.774C206.26 344.119 214.668 352.528 225.009 352.528ZM309.393 333.778V371.28H271.89V349.921C277.47 346.666 281.265 340.687 281.265 333.774L309.393 333.778ZM225.009 296.276H262.512L262.52 333.778H225.009L225.009 296.276Z" fill="#D7EDDA"/>
<path d="M56.253 230.647C56.253 235.823 52.0552 240.021 46.8784 240.021C41.7017 240.021 37.5039 235.823 37.5039 230.647C37.5039 225.47 41.7017 221.272 46.8784 221.272C52.0552 221.272 56.253 225.47 56.253 230.647Z" fill="#D7EDDA"/>
<path d="M75.001 211.887H93.7546V249.389H75.001V211.887Z" fill="#D7EDDA"/>
<path d="M56.253 305.643C56.253 310.819 52.0552 315.017 46.8784 315.017C41.7017 315.017 37.5039 310.819 37.5039 305.643C37.5039 300.466 41.7017 296.268 46.8784 296.268C52.0552 296.268 56.253 300.466 56.253 305.643Z" fill="#D7EDDA"/>
<path d="M75.001 286.894H93.7546V324.396H75.001V286.894Z" fill="#D7EDDA"/>
<path d="M56.253 380.651C56.253 385.832 52.0552 390.03 46.8784 390.03C41.7017 390.03 37.5039 385.832 37.5039 380.651C37.5039 375.475 41.7017 371.277 46.8784 371.277C52.0552 371.277 56.253 375.475 56.253 380.651Z" fill="#D7EDDA"/>
<path d="M75.001 361.902H93.7546V399.404H75.001V361.902Z" fill="#D7EDDA"/>
<path d="M56.253 455.661C56.253 460.841 52.0552 465.039 46.8784 465.039C41.7017 465.039 37.5039 460.842 37.5039 455.661C37.5039 450.484 41.7017 446.286 46.8784 446.286C52.0552 446.286 56.253 450.484 56.253 455.661Z" fill="#D7EDDA"/>
<path d="M75.001 436.911H93.7546V474.413H75.001V436.911Z" fill="#D7EDDA"/>
<path d="M56.253 530.669C56.253 535.845 52.0552 540.043 46.8784 540.043C41.7017 540.043 37.5039 535.845 37.5039 530.669C37.5039 525.488 41.7017 521.29 46.8784 521.29C52.0552 521.29 56.253 525.488 56.253 530.669Z" fill="#D7EDDA"/>
<path d="M75.001 511.908H93.7546V549.41H75.001V511.908Z" fill="#D7EDDA"/>
<path d="M112.499 211.887H131.253V249.389H112.499V211.887Z" fill="#D7EDDA"/>
</svg>
