<svg width="46" height="46" viewBox="0 0 46 46" fill="none" xmlns="http://www.w3.org/2000/svg">
<path fill-rule="evenodd" clip-rule="evenodd" d="M22.6471 0C35.1467 0 45.2941 10.1483 45.2941 22.6471C45.2941 35.1467 35.1459 45.2941 22.6471 45.2941C10.1474 45.2941 0 35.1459 0 22.6471C0 10.1474 10.1483 0 22.6471 0V0ZM12.9022 31.9665C15.0231 28.851 18.5979 26.8039 22.6471 26.8039C26.696 26.8039 30.2707 28.851 32.3919 31.9665C30.271 35.0814 26.6962 37.1287 22.6471 37.1287C18.5981 37.1287 15.0234 35.0817 12.9022 31.9665ZM22.6471 8.1657C26.4345 8.1657 29.5098 11.2404 29.5098 15.0278C29.5098 18.8153 26.4348 21.8906 22.6471 21.8906C18.8596 21.8906 15.7843 18.8155 15.7843 15.0278C15.7843 11.2404 18.8594 8.1657 22.6471 8.1657Z" fill="white"/>
</svg>
