<svg width="509" height="509" viewBox="0 0 509 509" fill="none" xmlns="http://www.w3.org/2000/svg">
<path d="M492.574 231.379V147.77C492.574 138.716 485.211 131.349 476.154 131.349H443.315L443.319 57.4674C443.319 43.8899 432.27 32.8375 418.689 32.8375H394.059V16.4206C394.059 7.36689 386.695 0 377.639 0H361.218C352.164 0 344.797 7.36371 344.797 16.4206V32.8411H328.377L328.384 16.4206C328.384 7.36689 321.02 0 311.963 0H295.543C286.489 0 279.122 7.36371 279.122 16.4206V32.8411L164.189 32.8376V16.4206C164.189 7.36698 156.826 8.54387e-05 147.769 8.54387e-05H131.348C122.295 8.54387e-05 114.928 7.36379 114.928 16.4206V32.8412H98.5071L98.5142 16.4206C98.5142 7.36698 91.1505 8.54387e-05 82.0937 8.54387e-05H65.6768C56.6231 8.54387e-05 49.2598 7.36379 49.2598 16.4206V32.8412L24.6299 32.8376C11.0497 32.8376 0 43.8865 0 57.4676V418.691C0 432.268 11.0488 443.321 24.6299 443.321H82.0982V451.529C82.0982 483.217 107.874 508.997 139.567 508.997C171.254 508.997 197.035 483.221 197.035 451.529V443.321H418.693C432.271 443.321 443.323 432.272 443.323 418.691L443.32 246.287C452.373 246.287 459.74 238.923 459.74 229.866V180.607H476.161V231.375C466.628 234.773 459.74 243.805 459.74 254.492C459.74 268.07 470.789 279.122 484.37 279.122C497.947 279.122 509 268.073 509 254.492C508.996 243.805 502.109 234.777 492.576 231.379L492.574 231.379ZM400.473 131.353L397.796 120.662C397.289 118.635 396.525 116.749 395.638 114.935H426.9V131.355L400.473 131.353ZM369.436 114.936C375.329 114.936 380.445 118.926 381.873 124.647L383.546 131.353H355.319L356.995 124.647C358.426 118.923 363.538 114.936 369.436 114.936H369.436ZM361.223 16.4178H377.644L377.651 65.6768L361.223 65.6732L361.223 16.4178ZM295.547 16.4178H311.967L311.974 65.6768L295.546 65.6732L295.547 16.4178ZM131.359 16.4178H147.78L147.787 65.6768L131.359 65.6732L131.359 16.4178ZM65.6825 16.4178H82.103L82.1101 65.6768L65.6823 65.6732L65.6825 16.4178ZM24.6356 49.2562H49.2655V65.6768C49.2655 74.7304 56.6292 82.0973 65.6861 82.0973H82.1066C91.1603 82.0973 98.5272 74.7336 98.5272 65.6768L98.5201 49.2562H114.941V65.6768C114.941 74.7304 122.304 82.0973 131.361 82.0973H147.782C156.835 82.0973 164.202 74.7336 164.202 65.6768L164.195 49.2562H279.128V65.6768C279.128 74.7304 286.492 82.0973 295.549 82.0973H311.969C321.023 82.0973 328.39 74.7336 328.39 65.6768L328.383 49.2562H344.803V65.6768C344.803 74.7304 352.167 82.0973 361.224 82.0973H377.644C386.698 82.0973 394.065 74.7336 394.065 65.6768L394.058 49.2562H418.688C423.211 49.2562 426.896 52.9416 426.896 57.4648V98.5117H16.4189V57.4648C16.4189 52.9415 20.1043 49.2562 24.6276 49.2562H24.6356ZM24.6356 426.894C20.1123 426.894 16.427 423.209 16.427 418.686V114.934H343.229C342.342 116.748 341.571 118.637 341.071 120.664L338.394 131.351H49.2569C40.2032 131.351 32.8364 138.715 32.8364 147.772V394.062C32.8364 403.116 40.2001 410.482 49.2569 410.482H82.0953V426.903L24.6356 426.894ZM262.709 180.613H279.13V229.872C279.13 238.926 286.493 246.293 295.55 246.293H394.068V394.065L197.032 394.058V268.791L158.939 200.217C155.034 193.187 147.61 188.82 139.565 188.82C131.52 188.82 124.099 193.187 120.19 200.213L82.1012 268.791V394.058H49.2628V147.777H246.289V164.198C246.289 173.251 253.653 180.614 262.706 180.614L262.709 180.613ZM108.82 254.499H170.31L179.431 270.919H99.6979L108.82 254.499ZM117.941 238.078L134.54 208.194C136.567 204.547 142.56 204.547 144.588 208.194L161.19 238.078H117.941ZM98.5163 287.337H131.355V410.477H98.5163V287.337ZM147.775 287.337H180.614V410.477H147.775V287.337ZM139.563 492.571C116.929 492.571 98.5161 474.158 98.5161 451.524V426.894H180.613V451.524C180.613 474.158 162.197 492.571 139.563 492.571V492.571ZM426.9 418.686C426.9 423.209 423.214 426.895 418.691 426.895H197.033V410.474H394.06C403.113 410.474 410.48 403.11 410.48 394.053V246.29H426.901L426.9 418.686ZM443.32 229.867H295.548V180.608H443.32V229.867ZM262.709 164.19V147.77H476.16L476.167 164.19H262.709ZM484.367 262.708C479.844 262.708 476.159 259.023 476.159 254.499C476.159 249.976 479.844 246.291 484.367 246.291C488.891 246.291 492.576 249.976 492.576 254.499C492.576 259.023 488.891 262.708 484.367 262.708Z" fill="#D7EDDA"/>
<path d="M213.451 262.701V295.539C213.451 304.593 220.815 311.96 229.872 311.96H262.71C271.764 311.96 279.131 304.596 279.131 295.539V262.701C279.131 253.647 271.767 246.28 262.71 246.28H229.872C220.815 246.284 213.451 253.648 213.451 262.701ZM262.717 295.539H229.868V262.701H262.706L262.717 295.539Z" fill="#D7EDDA"/>
<path d="M311.97 369.426H344.809C353.862 369.426 361.229 362.062 361.229 353.005V320.167C361.229 311.113 353.866 303.746 344.809 303.746H311.97C302.917 303.746 295.55 311.11 295.55 320.167V353.005C295.55 362.062 302.914 369.426 311.97 369.426ZM311.97 320.167H344.809L344.816 353.005H311.97L311.97 320.167Z" fill="#D7EDDA"/>
</svg>
