<svg width="41" height="41" viewBox="0 0 41 41" fill="none" xmlns="http://www.w3.org/2000/svg">
<path fill-rule="evenodd" clip-rule="evenodd" d="M5.03571 12.5893V35.25H35.25V12.5893H5.03571ZM32.7321 5.03571H37.7679C39.2786 5.03571 40.2857 6.04286 40.2857 7.55357V37.7679C40.2857 39.2786 39.2786 40.2857 37.7679 40.2857H2.51786C1.00714 40.2857 0 39.2786 0 37.7679V7.55357C0 6.04286 1.00714 5.03571 2.51786 5.03571H7.55357V2.51786C7.55357 1.00714 8.56071 0 10.0714 0C11.5821 0 12.5893 1.00714 12.5893 2.51786V5.03571H27.6964V2.51786C27.6964 1.00714 28.7036 0 30.2143 0C31.725 0 32.7321 1.00714 32.7321 2.51786V5.03571ZM30.2143 30.2143H25.1786V25.1786H30.2143V30.2143ZM22.6607 30.2143H17.625V25.1786H22.6607V30.2143ZM30.2143 22.6607H25.1786V17.625H30.2143V22.6607ZM22.6607 22.6607H17.625V17.625H22.6607V22.6607ZM15.1071 30.2143H10.0714V25.1786H15.1071V30.2143Z" fill="white"/>
</svg>
